<?xml version="1.0" encoding="utf-8"?>
<!-- Generator: Adobe Illustrator 22.1.0, SVG Export Plug-In . SVG Version: 6.00 Build 0)  -->
<svg xmlns="http://www.w3.org/2000/svg" xmlns:xlink="http://www.w3.org/1999/xlink" version="1.1" id="Layer_1" x="0px" y="0px" viewBox="0 0 256 256" style="enable-background:new 0 0 256 256;" xml:space="preserve" width="512" height="512">
<style type="text/css">
	.st0{fill:#FFDF74;}
	.st1{fill:#FCE575;}
	.st2{fill:#FFD551;}
	.st3{fill:#F9BB32;}
	.st4{fill:#FFF4C1;}
	.st5{fill:#DB9C2E;}
	.st6{fill:#FFC34C;}
	.st7{fill:#FFEA63;}
	.st8{fill:#A56021;}
	.st9{fill:#E58D23;}
	.st10{fill:#CCC033;}
	.st11{fill:#99AF17;}
	.st12{fill:#FCDA4F;}
	.st13{fill:#8C4C17;}
	.st14{fill:#BF6C0D;}
	.st15{fill:#FFA730;}
	.st16{fill:#FF624B;}
	.st17{fill:#FCF9DE;}
	.st18{fill:#FFEACF;}
	.st19{fill:#FFD59A;}
	.st20{fill:#EACF32;}
	.st21{fill:#FF4B34;}
	.st22{fill:#FF9079;}
	.st23{fill:#FFB74B;}
</style>
<g>
	<g>
		<g>
			<path class="st10" d="M199.679,248h-175v-18.359c0-32.439,26.297-58.735,58.735-58.735h57.529     c32.439,0,58.735,26.297,58.735,58.735V248z"/>
		</g>
	</g>
	<g>
		<g>
			<path class="st20" d="M191.678,243c-1.657,0-3-1.343-3-3v-10.359c0-10.145-3.154-19.839-9.121-28.034     c-0.976-1.339-0.681-3.216,0.659-4.191c1.338-0.976,3.216-0.68,4.19,0.659c6.72,9.228,10.271,20.143,10.271,31.566V240     C194.678,241.657,193.335,243,191.678,243z"/>
		</g>
	</g>
	<g>
		<g>
			<path class="st11" d="M52.679,237.641c0-32.439,26.297-58.735,58.735-58.735h57.529c0.555,0,1.103,0.027,1.654,0.042     c-8.705-5.103-18.834-8.042-29.654-8.042H83.414c-32.439,0-58.735,26.297-58.735,58.735V248h28V237.641z"/>
		</g>
	</g>
	<g>
		<g>
			<path class="st13" d="M62.118,114.355h19.977v-71.99c0-6.634-5.378-12.011-12.011-12.011h-7.966     c-6.634,0-12.011,5.378-12.011,12.011v59.979C50.107,108.978,55.484,114.355,62.118,114.355z"/>
		</g>
	</g>
	<g>
		<g>
			<path class="st13" d="M162.562,24.181h-8.146c-6.584,0-11.921,5.373-11.921,12V46.63c12.901,9.66,21.259,25.123,21.259,42.552     v18.94c6.024-0.602,10.729-5.717,10.729-11.94V36.181C174.483,29.554,169.146,24.181,162.562,24.181z"/>
		</g>
	</g>
	<g>
		<g>
			<ellipse class="st18" cx="164.946" cy="93.737" rx="17.029" ry="17.142"/>
		</g>
	</g>
	<g>
		<g>
			<ellipse class="st19" cx="57.657" cy="99.94" rx="17.029" ry="17.142"/>
		</g>
	</g>
	<g>
		<g>
			<path class="st18" d="M112.179,203.302L112.179,203.302c-13.395,0-24.254-10.859-24.254-24.254v-58.38h48.507v58.38     C136.432,192.444,125.574,203.302,112.179,203.302z"/>
		</g>
	</g>
	<g>
		<g>
			<path class="st19" d="M104.716,178.888v-58.219H87.925v58.219c0,13.484,10.859,24.415,24.254,24.415l0,0     c2.952,0,5.779-0.532,8.396-1.504C111.317,198.36,104.716,189.4,104.716,178.888z"/>
		</g>
	</g>
	<g>
		<g>
			<path class="st18" d="M112.295,160.968L112.295,160.968c-29.079,0-52.652-23.573-52.652-52.651V80.636     c0-29.079,23.573-52.651,52.651-52.651h0c29.079,0,52.651,23.573,52.651,52.651v27.681     C164.946,137.396,141.374,160.968,112.295,160.968z"/>
		</g>
	</g>
	<g>
		<g>
			<path class="st19" d="M78.121,101.295V74.985c0-2.007,0.112-3.987,0.328-5.936c0.335-3.017,2.905-5.28,5.92-5.28h77.734     c-7.1-20.82-26.717-35.785-49.809-35.785c-2.261,0-4.486,0.148-6.672,0.426c0.003-0.002,0.006-0.004,0.01-0.006     c-0.169,0.021-0.334,0.053-0.502,0.076c-0.555,0.076-1.109,0.157-1.658,0.25c-0.266,0.045-0.53,0.097-0.795,0.146     c-0.486,0.09-0.971,0.185-1.452,0.289c-0.279,0.06-0.557,0.124-0.835,0.188c-0.469,0.109-0.935,0.225-1.399,0.347     c-0.272,0.071-0.543,0.142-0.813,0.218c-0.481,0.134-0.957,0.278-1.433,0.426c-0.242,0.075-0.486,0.147-0.727,0.226     c-0.569,0.186-1.133,0.385-1.693,0.589c-0.139,0.051-0.279,0.096-0.417,0.148c-0.697,0.262-1.387,0.538-2.069,0.828     c-0.178,0.076-0.352,0.158-0.529,0.236c-0.5,0.219-0.997,0.442-1.489,0.676c-0.246,0.117-0.488,0.24-0.732,0.361     c-0.418,0.207-0.834,0.417-1.245,0.635c-0.261,0.138-0.519,0.279-0.777,0.421c-0.391,0.215-0.778,0.435-1.163,0.66     c-0.258,0.151-0.515,0.302-0.77,0.457c-0.386,0.235-0.767,0.476-1.147,0.72c-0.24,0.154-0.481,0.306-0.718,0.465     c-0.418,0.279-0.829,0.567-1.239,0.857c-0.188,0.134-0.38,0.262-0.567,0.398c-0.58,0.422-1.151,0.856-1.712,1.301     c-0.175,0.139-0.343,0.284-0.516,0.425c-0.392,0.319-0.782,0.639-1.164,0.969c-0.228,0.197-0.451,0.4-0.676,0.601     c-0.319,0.284-0.637,0.57-0.948,0.862c-0.236,0.221-0.468,0.446-0.7,0.671c-0.293,0.284-0.582,0.571-0.868,0.862     c-0.231,0.235-0.46,0.471-0.687,0.71c-0.279,0.295-0.554,0.595-0.826,0.896c-0.219,0.242-0.439,0.483-0.654,0.73     c-0.28,0.321-0.553,0.65-0.825,0.978c-0.194,0.234-0.392,0.464-0.583,0.702c-0.399,0.498-0.788,1.004-1.169,1.517     c-0.198,0.266-0.389,0.537-0.582,0.807c-0.267,0.373-0.534,0.745-0.791,1.125c-0.189,0.279-0.369,0.563-0.553,0.845     c-0.215,0.33-0.429,0.66-0.636,0.996c-0.186,0.3-0.366,0.604-0.546,0.908c-0.194,0.327-0.384,0.656-0.571,0.988     c-0.176,0.313-0.349,0.626-0.518,0.943c-0.179,0.334-0.353,0.671-0.525,1.01c-0.163,0.319-0.325,0.638-0.481,0.961     c-0.17,0.351-0.331,0.707-0.494,1.063c-0.144,0.316-0.292,0.63-0.431,0.95c-0.187,0.431-0.361,0.868-0.537,1.305     c-0.191,0.476-0.375,0.955-0.552,1.438c-0.146,0.395-0.295,0.789-0.431,1.188h0.004c-1.841,5.399-2.847,11.189-2.847,17.216     v26.342c0,29.159,23.129,53.336,52.094,53.638c9.312,0.097,18.074-2.24,25.697-6.418c-2.299,0.292-4.643,0.436-7.025,0.42     C101.363,154.769,78.121,130.535,78.121,101.295z"/>
		</g>
	</g>
	<g>
		<g>
			<path class="st8" d="M144.669,55.969H56.691c-9.882,0-17.893-8.011-17.893-17.893V8l105.872,0     c9.882,0,17.893,8.011,17.893,17.893v12.183C162.562,47.958,154.551,55.969,144.669,55.969z"/>
		</g>
	</g>
	<g>
		<g>
			<path class="st14" d="M144.669,50.969c-1.657,0-3-1.343-3-3s1.343-3,3-3c3.801,0,6.893-3.092,6.893-6.893V25.893     c0-1.657,1.343-3,3-3s3,1.343,3,3v12.183C157.562,45.186,151.778,50.969,144.669,50.969z"/>
		</g>
	</g>
	<g>
		<g>
			<g>
				<ellipse class="st8" cx="82.492" cy="94.476" rx="6.557" ry="6.6"/>
			</g>
		</g>
		<g>
			<g>
				<ellipse class="st8" cx="142.098" cy="94.476" rx="6.557" ry="6.6"/>
			</g>
		</g>
	</g>
	<g>
		<g>
			<path class="st13" d="M82.492,123.868c-16.207,0-29.391-13.185-29.391-29.391s13.185-29.391,29.391-29.391     s29.391,13.185,29.391,29.391S98.699,123.868,82.492,123.868z M82.492,71.085c-12.898,0-23.391,10.493-23.391,23.391     s10.493,23.391,23.391,23.391s23.391-10.493,23.391-23.391S95.39,71.085,82.492,71.085z"/>
		</g>
	</g>
	<g>
		<g>
			<path class="st13" d="M142.098,123.868c-16.207,0-29.391-13.185-29.391-29.391s13.185-29.391,29.391-29.391     c16.206,0,29.391,13.185,29.391,29.391S158.304,123.868,142.098,123.868z M142.098,71.085c-12.897,0-23.391,10.493-23.391,23.391     s10.494,23.391,23.391,23.391s23.391-10.493,23.391-23.391S154.995,71.085,142.098,71.085z"/>
		</g>
	</g>
	<g>
		<g>
			<path class="st14" d="M121.339,99.97h-18c-2.761,0-5-2.239-5-5v0c0-2.761,2.239-5,5-5h18c2.761,0,5,2.239,5,5v0     C126.339,97.731,124.101,99.97,121.339,99.97z"/>
		</g>
	</g>
	<g>
		<g>
			<path class="st14" d="M153.034,133.424l17.32-10l60.314,104.467c1.344,2.328,0.546,5.304-1.781,6.648l-8.892,5.134     c-2.328,1.344-5.304,0.546-6.648-1.781L153.034,133.424z"/>
		</g>
	</g>
	<g>
		<g>
			<path class="st9" d="M216.475,222.302c-1.037,0-2.045-0.538-2.601-1.5l-30.389-52.635c-0.829-1.435-0.337-3.27,1.098-4.098     c1.437-0.827,3.27-0.336,4.098,1.098l30.389,52.635c0.829,1.435,0.337,3.27-1.098,4.098     C217.499,222.172,216.983,222.302,216.475,222.302z"/>
		</g>
	</g>
	<g>
		<g>
			<path class="st4" d="M170.354,123.424l-17.32,10l0.294-16.197c0.028-1.541,1.503-2.393,2.852-1.647L170.354,123.424z"/>
		</g>
	</g>
	<g>
		<g>
			<path class="st10" d="M209.565,231.339l17.32-10l3.783,6.553c1.344,2.328,0.546,5.304-1.781,6.648l-8.892,5.134     c-2.328,1.344-5.304,0.546-6.648-1.781L209.565,231.339z"/>
		</g>
	</g>
	<g>
		<g>
			<path class="st13" d="M66.798,38.076V8h-28v30.076c0,9.882,8.011,17.893,17.893,17.893h28     C74.809,55.969,66.798,47.958,66.798,38.076z"/>
		</g>
	</g>
	<g>
		<g>
			<circle class="st13" cx="82.492" cy="40.667" r="9"/>
		</g>
	</g>
	<g>
		<g>
			<circle class="st11" cx="66.101" cy="235.365" r="9"/>
		</g>
	</g>
	<g>
		<g>
			<path class="st8" d="M221.348,237.892l-60.314-104.467l11.32-6.536l-2-3.464l-17.32,10l60.314,104.467     c1.344,2.328,4.32,3.125,6.648,1.781l1.861-1.074C221.672,238.379,221.497,238.149,221.348,237.892z"/>
		</g>
	</g>
	<g>
		<g>
			<path class="st1" d="M161.307,118.418l-5.126-2.837c-1.349-0.746-2.824,0.105-2.852,1.646l-0.294,16.197l8.085-4.668     L161.307,118.418z"/>
		</g>
	</g>
	<g>
		<g>
			<path class="st11" d="M221.348,237.892l-3.783-6.553l11.32-6.536l-2-3.464l-17.32,10l3.783,6.553     c1.344,2.328,4.32,3.125,6.648,1.781l1.861-1.074C221.672,238.379,221.497,238.149,221.348,237.892z"/>
		</g>
	</g>
</g>
</svg>
