<svg id="Capa_1" enable-background="new 0 0 512 512" height="512" viewBox="0 0 512 512" width="512" xmlns="http://www.w3.org/2000/svg"><g><g><path d="m492.095 504.5h-472.19c-3.944 0-7.142-3.198-7.142-7.142v-449.015h486.474v449.016c0 3.944-3.198 7.141-7.142 7.141z" fill="#7ca1b1"/></g><g><path d="m499.237 48.348v449.007c0 3.944-3.193 7.147-7.147 7.147h-24.374c3.944 0 7.137-3.193 7.137-7.137v-449.017z" fill="#678d98"/></g><g><g><path d="m12.763 48.343h486.474v-33.701c0-3.944-3.198-7.142-7.142-7.142h-472.19c-3.944 0-7.142 3.198-7.142 7.142z" fill="#2b3838"/></g></g><g><g><path d="m499.237 14.645v33.703h-24.264v-33.703c0-3.944-3.193-7.147-7.137-7.147h24.254c3.954 0 7.147 3.203 7.147 7.147z" fill="#212d2d"/></g></g><g><path d="m63.693 504.5h-44.19c-3.722 0-6.74-3.018-6.74-6.74v-399.512h50.93z" fill="#2b3838"/></g><g><path d="m256.512-94.571h49.905v435.544h-49.905z" fill="#2b3838" transform="matrix(0 1 -1 0 404.666 -158.264)"/></g><g><path d="m462.093 111.009h49.905v24.384h-49.905z" fill="#212d2d" transform="matrix(0 1 -1 0 610.246 -363.845)"/></g><g><g><path d="m396.3 449.042h-229.551c-4.385 0-7.939-3.554-7.939-7.939v-229.552c0-4.385 3.554-7.939 7.939-7.939h229.551c4.385 0 7.939 3.554 7.939 7.939v229.551c.001 4.385-3.554 7.94-7.939 7.94z" fill="#f8f6f6"/></g></g><g><g><path d="m404.244 211.547v229.553c0 4.384-3.563 7.938-7.948 7.938h-25.525c4.384 0 7.948-3.553 7.948-7.938v-229.553c0-4.384-3.563-7.938-7.948-7.938h25.525c4.385 0 7.948 3.553 7.948 7.938z" fill="#ebebeb"/></g></g><g><path d="m12.763 48.343h229.223v49.905h-229.223z" fill="#537983"/></g><g><path d="m217.601 48.332h24.385v49.908h-24.385z" fill="#426970"/></g><g><path d="m166.749 211.112h30.193c4.142 0 7.5-3.357 7.5-7.5 0-4.142-3.358-7.5-7.5-7.5h-30.193c-8.513 0-15.439 6.925-15.439 15.439v229.551c0 8.513 6.926 15.439 15.439 15.439h229.551c8.513 0 15.439-6.925 15.439-15.439v-229.551c0-8.513-6.926-15.439-15.439-15.439h-164.324c-4.142 0-7.5 3.357-7.5 7.5 0 4.142 3.358 7.5 7.5 7.5h164.324c.242 0 .439.197.439.439v229.551c0 .242-.197.439-.439.439h-229.551c-.242 0-.439-.197-.439-.439v-229.551c0-.242.197-.439.439-.439z"/><g><path d="m499.237 423.991c4.142 0 7.5-3.357 7.5-7.5v-401.849c0-8.074-6.569-14.642-14.642-14.642h-472.19c-8.073 0-14.642 6.568-14.642 14.642v482.716.402c0 7.852 6.388 14.239 14.239 14.239h.402 472.19c8.073 0 14.642-6.568 14.642-14.642v-46.117c0-4.142-3.358-7.5-7.5-7.5s-7.5 3.357-7.5 7.5v45.761h-420.544v-341.348h420.545v260.839c0 4.142 3.358 7.499 7.5 7.499zm-7.5-333.243h-242.251v-34.905h242.251zm-471.474-75.749h471.475v25.844h-471.475zm35.93 108.145h-10.398c-4.142 0-7.5 3.357-7.5 7.5 0 4.142 3.358 7.5 7.5 7.5h10.398v10.01 7.385h-10.398c-4.142 0-7.5 3.357-7.5 7.5 0 4.142 3.358 7.5 7.5 7.5h10.398v17.397h-10.398c-4.142 0-7.5 3.357-7.5 7.5 0 4.142 3.358 7.5 7.5 7.5h10.398v17.396h-10.398c-4.142 0-7.5 3.357-7.5 7.5 0 4.142 3.358 7.5 7.5 7.5h10.398v17.397h-10.398c-4.142 0-7.5 3.357-7.5 7.5 0 4.142 3.358 7.5 7.5 7.5h10.398v17.396h-10.398c-4.142 0-7.5 3.357-7.5 7.5s3.358 7.5 7.5 7.5h10.398v17.397h-10.398c-4.142 0-7.5 3.357-7.5 7.5s3.358 7.5 7.5 7.5h10.398v17.396h-10.398c-4.142 0-7.5 3.357-7.5 7.5 0 4.142 3.358 7.5 7.5 7.5h10.398v17.396h-10.398c-4.142 0-7.5 3.357-7.5 7.5s3.358 7.5 7.5 7.5h10.398v17.397h-10.398c-4.142 0-7.5 3.357-7.5 7.5s3.358 7.5 7.5 7.5h10.398v17.396h-10.398c-4.142 0-7.5 3.357-7.5 7.5 0 4.142 3.358 7.5 7.5 7.5h10.398v34.906h-35.93v-391.266h35.931v17.397zm-35.93-32.396v-34.905h214.224v34.905zm446.875 49.906v-10.398c0-4.142-3.358-7.5-7.5-7.5s-7.5 3.357-7.5 7.5v10.398h-17.396v-10.398c0-4.142-3.358-7.5-7.5-7.5s-7.5 3.357-7.5 7.5v10.398h-17.396v-10.398c0-4.142-3.358-7.5-7.5-7.5s-7.5 3.357-7.5 7.5v10.398h-17.396v-10.398c0-4.142-3.358-7.5-7.5-7.5s-7.5 3.357-7.5 7.5v10.398h-17.396v-10.398c0-4.142-3.358-7.5-7.5-7.5s-7.5 3.357-7.5 7.5v10.398h-17.396v-10.398c0-4.142-3.358-7.5-7.5-7.5s-7.5 3.357-7.5 7.5v10.398h-17.396v-10.398c0-4.142-3.358-7.5-7.5-7.5s-7.5 3.357-7.5 7.5v10.398h-17.396v-10.398c0-4.142-3.358-7.5-7.5-7.5s-7.5 3.357-7.5 7.5v10.398h-17.396v-10.398c0-4.142-3.358-7.5-7.5-7.5s-7.5 3.357-7.5 7.5v10.398h-17.396v-10.398c0-4.142-3.358-7.5-7.5-7.5s-7.5 3.357-7.5 7.5v10.398h-17.396v-10.398c0-4.142-3.358-7.5-7.5-7.5s-7.5 3.357-7.5 7.5v10.398h-17.396v-10.398c0-4.142-3.358-7.5-7.5-7.5s-7.5 3.357-7.5 7.5v10.398h-24.59v-34.906h420.545v34.906z"/><path d="m49.751 66.232c-1.904-2.001-5.069-2.078-7.068-.173l-.348.332-.348-.332c-2-1.905-5.165-1.826-7.068.173-1.903 1.998-1.826 5.159.168 7.064-1.994 1.905-2.07 5.065-.168 7.064.982 1.032 2.301 1.552 3.621 1.552 1.238 0 2.479-.458 3.447-1.379l.348-.332.348.332c.968.922 2.208 1.379 3.447 1.379 1.321 0 2.639-.52 3.621-1.552 1.903-1.998 1.827-5.159-.168-7.064 1.995-1.905 2.071-5.066.168-7.064z"/><path d="m216.211 71.911h-150.516c-2.761 0-5 2.238-5 5s2.239 5 5 5h150.516c2.761 0 5-2.238 5-5s-2.239-5-5-5z"/></g></g></g></svg>