<svg id="Capa_1" enable-background="new 0 0 512 512" height="512" viewBox="0 0 512 512" width="512" xmlns="http://www.w3.org/2000/svg"><g><g><g><path d="m512 72.638v366.724c0 5.687-4.615 10.302-10.302 10.302h-491.396c-5.687 0-10.302-4.615-10.302-10.302v-366.724c0-5.687 4.615-10.302 10.302-10.302h491.396c5.687 0 10.302 4.615 10.302 10.302z" fill="#e8e6ed"/><path d="m512 72.638v366.724c0 5.687-4.615 10.302-10.302 10.302h-123.395c113.979-98.66 111.445-328.061 108.756-387.327h14.639c5.687-.001 10.302 4.614 10.302 10.301z" fill="#d1d0d8"/><path d="m512 72.638v54.631h-512v-54.631c0-5.687 4.615-10.302 10.302-10.302h491.396c5.687 0 10.302 4.615 10.302 10.302z" fill="#d1d0d8"/><path d="m512 72.638v54.631h-24.549c.845-28.289.237-51.19-.391-64.932h14.639c5.686-.001 10.301 4.614 10.301 10.301z" fill="#aaaab2"/><g fill="#717177"><path d="m41.255 102.531h-.117c-4.268 0-7.726-3.459-7.726-7.726s3.459-7.726 7.726-7.726h.117c4.268 0 7.726 3.459 7.726 7.726 0 4.266-3.459 7.726-7.726 7.726z"/><path d="m64.58 102.531h-.116c-4.268 0-7.726-3.459-7.726-7.726s3.459-7.726 7.726-7.726h.116c4.268 0 7.726 3.459 7.726 7.726.001 4.266-3.458 7.726-7.726 7.726z"/><path d="m87.907 102.531h-.116c-4.268 0-7.726-3.459-7.726-7.726s3.459-7.726 7.726-7.726h.116c4.268 0 7.726 3.459 7.726 7.726.001 4.266-3.458 7.726-7.726 7.726z"/><path d="m470.862 102.531h-14.377c-4.268 0-7.726-3.459-7.726-7.726s3.459-7.726 7.726-7.726h14.377c4.268 0 7.726 3.459 7.726 7.726.001 4.266-3.458 7.726-7.726 7.726z"/></g></g><path d="m200.092 179.818v132.059c0 5.69-4.612 10.302-10.302 10.302h-132.059c-5.69 0-10.302-4.612-10.302-10.302v-132.059c0-5.69 4.612-10.302 10.302-10.302h132.059c5.69 0 10.302 4.613 10.302 10.302z" fill="#26e4ff"/><path d="m200.092 179.818v132.059c0 5.69-4.612 10.302-10.302 10.302h-90.12c69.177-41.805 69.074-120.881 65.89-152.662h24.23c5.69-.001 10.302 4.612 10.302 10.301z" fill="#22d0ff"/><path d="m200.092 356.216v42.577c0 5.69-4.612 10.302-10.302 10.302h-132.059c-5.69 0-10.302-4.612-10.302-10.302v-42.577c0-5.69 4.612-10.302 10.302-10.302h132.059c5.69 0 10.302 4.613 10.302 10.302z" fill="#ffb800"/><path d="m200.092 356.216v42.577c0 5.69-4.612 10.302-10.302 10.302h-48.099c20.439-18.646 32.059-41.238 38.436-63.181h9.663c5.69 0 10.302 4.613 10.302 10.302z" fill="#ff9700"/><path d="m454.166 179.818v33.913c0 5.69-4.612 10.302-10.302 10.302h-98.64c-5.69 0-10.302-4.612-10.302-10.302v-33.913c0-5.69 4.612-10.302 10.302-10.302h98.64c5.689 0 10.302 4.613 10.302 10.302z" fill="#ab8eff"/><path d="m454.166 179.818v33.913c0 5.69-4.612 10.302-10.302 10.302h-40.816c18.481-16.04 30.102-35.242 37.251-54.517h3.564c5.69 0 10.303 4.613 10.303 10.302z" fill="#8f67ff"/><path d="m454.166 258.38v140.414c0 5.69-4.612 10.302-10.302 10.302h-98.64c-5.69 0-10.302-4.612-10.302-10.302v-140.414c0-5.69 4.612-10.302 10.302-10.302h98.64c5.689 0 10.302 4.612 10.302 10.302z" fill="#2fd92d"/><path d="m454.166 258.38v140.414c0 5.69-4.612 10.302-10.302 10.302h-73.256c52.611-44.184 55.094-122.499 52.694-161.017h20.562c5.689-.001 10.302 4.611 10.302 10.301z" fill="#1fbf33"/><g><path d="m310.672 179.818v218.975c0 5.69-4.612 10.302-10.302 10.302h-65.056c-5.69 0-10.302-4.612-10.302-10.302v-218.975c0-5.69 4.612-10.302 10.302-10.302h65.056c5.69 0 10.302 4.613 10.302 10.302z" fill="#ff5677"/><path d="m310.672 179.818v218.975c0 5.69-4.612 10.302-10.302 10.302h-55.867c50.705-69.723 51.406-198.732 50.242-239.579h5.625c5.69 0 10.302 4.613 10.302 10.302z" fill="#ff2953"/></g></g></g></svg>